<svg width="32" height="32" viewBox="0 0 32 32" fill="none" xmlns="http://www.w3.org/2000/svg">
<path opacity="0.6" fill-rule="evenodd" clip-rule="evenodd" d="M20.9929 4.05594C22.8294 4.09925 24.5775 4.84287 25.8698 6.13057H25.8794C26.5509 6.78037 27.0842 7.55567 27.4484 8.41115C27.8125 9.26663 28 10.1851 28 11.1129C28 12.0407 27.8125 12.9592 27.4484 13.8147C27.1019 14.6287 26.6021 15.3702 25.9759 16C25.9441 15.968 25.9119 15.9362 25.8794 15.9048L16.021 6.18182L6.16265 15.9048C6.12984 15.9362 6.09738 15.968 6.06526 16C4.77609 14.7149 4.03583 12.9886 4.00127 11.1777C3.96584 9.32166 4.6746 7.52686 5.97348 6.18338C7.27236 4.83989 9.05639 4.0563 10.9378 4.00292C12.8192 3.94954 14.646 4.63068 16.021 5.8983C17.3743 4.67299 19.1564 4.01263 20.9929 4.05594ZM6.06526 16C4.77609 17.2851 4.03583 19.0114 4.00127 20.8223C3.96584 22.6783 4.6746 24.4731 5.97348 25.8166C7.27236 27.1601 9.05639 27.9437 10.9378 27.9971C12.8192 28.0505 14.646 27.3693 16.021 26.1017C17.3743 27.327 19.1564 27.9874 20.9929 27.9441C22.8294 27.9007 24.5775 27.1571 25.8698 25.8694H25.8794C26.5509 25.2196 27.0842 24.4443 27.4484 23.5889C27.8125 22.7334 28 21.8149 28 20.8871C28 19.9593 27.8125 19.0408 27.4484 18.1853C27.1019 17.3713 26.6021 16.6298 25.9759 16C25.9441 16.032 25.9119 16.0638 25.8794 16.0952L16.021 25.8182L6.16265 16.0952C6.12984 16.0638 6.09738 16.032 6.06526 16Z" fill="#FF007A"/>
<path fill-rule="evenodd" clip-rule="evenodd" d="M25.976 16C25.9441 15.968 25.912 15.9362 25.8795 15.9048L16.0211 6.18182L6.1627 15.9048C6.12989 15.9362 6.09743 15.968 6.06531 16C6.09743 16.032 6.12989 16.0638 6.1627 16.0952L16.0211 25.8182L25.8795 16.0952C25.912 16.0638 25.9441 16.032 25.976 16Z" fill="#FF007A"/>
</svg>
